<svg width="49" height="28" viewBox="0 0 49 28" fill="none" xmlns="http://www.w3.org/2000/svg">
<g id="Group 66">
<g id="Group">
<g id="Layer_3_copy">
<path id="Vector" d="M6.6529 6.09727C5.0428 6.09727 3.43269 6.09727 1.82259 6.09727C1.66422 6.09727 1.50585 6.09727 1.34748 6.05768C1.00434 5.99169 0.819574 5.75414 0.793179 5.4242C0.766784 5.09426 0.938352 4.8435 1.26829 4.73792C1.41346 4.68513 1.57184 4.67194 1.73021 4.67194C5.0296 4.67194 8.31579 4.67194 11.6152 4.67194C11.8263 4.67194 12.0903 4.69833 12.2223 4.83031C12.3806 4.98868 12.539 5.27902 12.4994 5.49019C12.473 5.68815 12.2355 5.89931 12.0375 6.03129C11.9187 6.11047 11.7076 6.08408 11.536 6.08408C9.8995 6.09727 8.2762 6.09727 6.6529 6.09727Z" fill="url(#paint0_linear_3017_206)"/>
<path id="Vector_2" d="M3.11587 9.48906C2.25803 9.48906 1.40019 9.48906 0.542344 9.48906C0.463159 9.48906 0.370775 9.48906 0.29159 9.44947C0.106824 9.38348 0.0144414 9.14592 0.0012438 8.81598C-0.0119538 8.48604 0.0804289 8.23529 0.251997 8.12971C0.331183 8.07692 0.410368 8.06372 0.502751 8.06372C2.25803 8.06372 4.00011 8.06372 5.75539 8.06372C5.86097 8.06372 6.00614 8.09012 6.07213 8.22209C6.16451 8.38046 6.2437 8.67081 6.2173 8.88197C6.2041 9.07993 6.07213 9.2911 5.96655 9.42307C5.90056 9.50226 5.79498 9.47586 5.70259 9.47586C4.84475 9.48906 3.98691 9.48906 3.11587 9.48906Z" fill="url(#paint1_linear_3017_206)"/>
<path id="Vector_3" d="M10.4406 12.5773C9.58274 12.5773 8.72489 12.5773 7.86705 12.5773C7.78787 12.5773 7.69548 12.5773 7.6163 12.5377C7.43153 12.4717 7.33915 12.2341 7.32595 11.9042C7.31275 11.5743 7.40514 11.3235 7.5767 11.2179C7.65589 11.1651 7.73507 11.1519 7.82746 11.1519C9.58274 11.1519 11.3248 11.1519 13.0801 11.1519C13.1857 11.1519 13.3308 11.1783 13.3968 11.3103C13.4892 11.4687 13.5684 11.759 13.542 11.9702C13.5288 12.1682 13.3968 12.3793 13.2913 12.5113C13.2253 12.5905 13.1197 12.5641 13.0273 12.5641C12.1695 12.5773 11.3116 12.5773 10.4406 12.5773Z" fill="url(#paint2_linear_3017_206)"/>
<path id="Vector_4" d="M10.9947 16.7873C9.58255 16.7873 8.17041 16.7873 6.75827 16.7873C6.16438 16.7873 5.86084 16.5498 5.86084 16.0878C5.86084 15.6391 6.19078 15.3884 6.75827 15.3884C9.59575 15.3884 12.4332 15.3884 15.2707 15.3884C15.6006 15.3884 15.9042 15.4544 16.023 15.7711C16.1022 15.9691 16.1154 16.3122 15.9966 16.4442C15.8382 16.6289 15.5215 16.7609 15.2707 16.7741C13.8454 16.8005 12.42 16.7873 10.9947 16.7873Z" fill="url(#paint3_linear_3017_206)"/>
<path id="Vector_5" d="M18.3592 23.5709C18.3724 24.3495 17.7389 25.0094 16.9603 25.0358C16.1816 25.0622 15.4821 24.4023 15.4689 23.6105C15.4557 22.8186 16.1156 22.1455 16.9075 22.1455C17.6861 22.1587 18.3328 22.7922 18.3592 23.5709Z" fill="url(#paint4_linear_3017_206)"/>
<path id="Vector_6" d="M41.2964 25.0358C40.5309 25.0358 39.8711 24.3759 39.8579 23.6105C39.8447 22.8318 40.5177 22.1455 41.3096 22.1587C42.0882 22.1719 42.7349 22.8054 42.7481 23.5841C42.7613 24.3627 42.075 25.049 41.2964 25.0358Z" fill="url(#paint5_linear_3017_206)"/>
<path id="Vector_7" d="M45.7967 11.9042C45.6912 11.8778 45.546 11.7458 45.5196 11.6403C45.1369 10.2017 44.7805 8.74999 44.4242 7.32465C44.9521 6.99471 44.9785 6.94192 44.9521 5.9653C44.9125 4.15724 43.6983 2.94306 41.8903 2.94306C40.3593 2.94306 38.8416 2.94306 37.3107 2.94306C37.1523 2.94306 37.0072 2.92986 36.8224 2.91666C36.8224 2.45475 36.8224 2.04562 36.8224 1.6233C36.8224 0.527902 36.2813 0 35.1727 0C26.4623 0 17.7387 0 9.0283 0C7.88011 0 7.35221 0.541101 7.35221 1.70249C7.35221 2.26998 7.35221 2.82428 7.35221 3.39178H8.75115C8.75115 2.91666 8.75115 2.42835 8.75115 1.95324C8.75115 1.76847 8.75115 1.59691 8.75115 1.41214C17.6859 1.41214 26.5415 1.41214 35.4366 1.41214C35.4366 1.59691 35.4366 1.76847 35.4366 1.94004C35.4366 5.84652 35.4366 9.75301 35.4366 13.6463C35.4366 13.7783 35.4234 13.9102 35.4366 14.029C35.4762 14.4249 35.7666 14.6889 36.1493 14.6889C36.5188 14.6757 36.7828 14.4249 36.8092 14.029C36.8224 13.7783 36.8092 13.5143 36.8092 13.2768C36.9016 13.2504 36.9412 13.224 36.9808 13.224C39.6995 13.224 42.4314 13.2108 45.1501 13.2372C45.1765 13.2372 45.2029 13.2372 45.2424 13.2372C45.2424 13.2372 45.2556 13.2372 45.282 13.2504C45.6516 13.2768 45.9947 13.4087 46.285 13.6199C46.7602 13.8706 47.2353 14.2534 47.2353 14.7945C47.2353 15.4544 47.2353 17.5528 47.2353 19.1497C47.2353 19.1497 47.2353 19.1497 47.2485 19.1497C47.2485 19.6116 47.2485 20.0735 47.2485 20.5222C47.2485 21.0765 47.2485 21.6176 47.2485 22.1851C46.7734 22.1851 46.3246 22.1719 45.8891 22.1851C45.5856 22.1983 45.4404 22.1059 45.3084 21.8156C44.5034 20.1395 43.144 19.2289 41.2964 19.2421C39.4751 19.2421 38.1421 20.1659 37.3107 21.8024C37.2447 21.9476 37.0863 22.0399 36.9676 22.1719C36.928 22.0267 36.8356 21.8684 36.8356 21.7232C36.8224 20.2715 36.8356 18.8197 36.8356 17.3548C36.8356 17.236 36.8356 17.1304 36.8356 17.0117C36.8092 16.563 36.5452 16.2858 36.1493 16.2726C35.7534 16.2726 35.4498 16.5762 35.4498 17.0381C35.4366 18.5954 35.4498 20.1527 35.4498 21.71C35.4498 21.8552 35.4498 22.0135 35.4498 22.1587C35.2783 22.1719 35.1727 22.1719 35.0803 22.1719C30.5403 22.1719 26.0004 22.1719 21.4736 22.1851C21.1701 22.1851 21.0513 22.0663 20.9325 21.8156C20.1011 20.0075 18.293 19.0045 16.3266 19.2817C14.7297 19.506 13.6211 20.4034 12.9216 21.8288C12.8556 21.974 12.684 22.1455 12.5521 22.1587C11.3907 22.1851 10.2161 22.1719 9.0547 22.1587C8.96231 22.1587 8.79075 22.0531 8.79075 21.9872C8.76435 21.5516 8.77755 21.1029 8.77755 20.6278C9.0151 20.6278 9.18667 20.6278 9.35824 20.6278C10.1501 20.6278 10.942 20.641 11.7338 20.6146C12.1825 20.6014 12.4597 20.3243 12.4729 19.9283C12.4729 19.5192 12.1825 19.2421 11.7206 19.2025C11.615 19.2025 11.5226 19.2025 11.4171 19.2025C9.43743 19.2025 7.47099 19.2157 5.49135 19.1893C5.05583 19.1893 4.6995 19.2685 4.43555 19.6116C4.43555 19.7832 4.43555 19.9547 4.43555 20.1263C4.63351 20.4958 4.96345 20.6146 5.37257 20.6146C6.03245 20.6014 6.69233 20.6146 7.37861 20.6146C7.37861 21.1029 7.37861 21.5252 7.37861 21.9608C7.37861 22.977 7.9725 23.5709 8.98871 23.5709C10.0313 23.5709 11.0607 23.5709 12.1033 23.5709C12.2485 23.5709 12.4069 23.5709 12.5521 23.5709C12.6444 26.1048 14.4525 27.7809 16.5773 27.9789C17.6727 28.0844 18.6889 27.7941 19.5732 27.121C20.7345 26.25 21.302 25.0358 21.368 23.5841C26.5679 23.5841 31.7281 23.5841 36.8884 23.5841C37.4031 26.4083 38.934 27.9525 41.2568 27.9789C42.3126 27.9921 43.2628 27.6753 44.0943 27.0022C45.1765 26.1312 45.678 24.9566 45.7571 23.5577C46.4302 23.5577 47.0769 23.5577 47.7236 23.5577C48.4627 23.5577 48.687 23.3333 48.687 22.6074C48.687 20.2847 48.687 17.9751 48.687 15.6523C48.6474 13.7387 47.6708 12.4453 45.7967 11.9042ZM36.8488 4.38159C36.9808 4.3684 37.0863 4.3552 37.2051 4.3552C38.7888 4.3552 40.3593 4.342 41.9431 4.3552C42.9065 4.3552 43.54 4.96229 43.5268 5.87292C41.3096 5.87292 39.0924 5.87292 36.8488 5.87292C36.8488 5.35821 36.8488 4.8831 36.8488 4.38159ZM36.8488 11.7986C36.8488 10.3205 36.8488 8.85557 36.8488 7.32465C37.3767 7.32465 37.8782 7.32465 38.3797 7.32465C39.7918 7.32465 41.204 7.32465 42.6029 7.32465C42.8801 7.32465 42.9989 7.40384 43.0648 7.69418C43.3684 9.00074 43.7115 10.3073 44.0415 11.6139C44.0547 11.6667 44.0547 11.7194 44.0547 11.8118C41.6527 11.7986 39.2639 11.7986 36.8488 11.7986ZM16.9073 26.5931C15.2708 26.5799 13.9114 25.2074 13.9114 23.5841C13.9246 21.9344 15.2708 20.6146 16.9205 20.6146C18.5833 20.6146 19.9031 21.9344 19.8899 23.6105C19.8899 25.2602 18.5438 26.6063 16.9073 26.5931ZM41.3096 26.5931C39.6731 26.5931 38.3137 25.2338 38.3137 23.5973C38.3137 21.9476 39.6467 20.6146 41.3096 20.6146C42.9725 20.6146 44.3054 21.9476 44.3054 23.5973C44.3054 25.2338 42.9461 26.5931 41.3096 26.5931Z" fill="url(#paint6_linear_3017_206)"/>
</g>
</g>
</g>
<defs>
<linearGradient id="paint0_linear_3017_206" x1="-0.271099" y1="6.39644" x2="-0.26839" y2="4.62801" gradientUnits="userSpaceOnUse">
<stop stop-color="#AECBE0"/>
<stop offset="0.48" stop-color="white"/>
<stop offset="1" stop-color="#AECBE0"/>
</linearGradient>
<linearGradient id="paint1_linear_3017_206" x1="-0.563882" y1="9.78823" x2="-0.558783" y2="8.01981" gradientUnits="userSpaceOnUse">
<stop stop-color="#AECBE0"/>
<stop offset="0.48" stop-color="white"/>
<stop offset="1" stop-color="#AECBE0"/>
</linearGradient>
<linearGradient id="paint2_linear_3017_206" x1="6.76082" y1="12.8765" x2="6.76592" y2="11.108" gradientUnits="userSpaceOnUse">
<stop stop-color="#AECBE0"/>
<stop offset="0.48" stop-color="white"/>
<stop offset="1" stop-color="#AECBE0"/>
</linearGradient>
<linearGradient id="paint3_linear_3017_206" x1="4.9344" y1="17.0849" x2="4.93741" y2="15.3452" gradientUnits="userSpaceOnUse">
<stop stop-color="#AECBE0"/>
<stop offset="0.48" stop-color="white"/>
<stop offset="1" stop-color="#AECBE0"/>
</linearGradient>
<linearGradient id="paint4_linear_3017_206" x1="15.2068" y1="25.6434" x2="15.2519" y2="22.057" gradientUnits="userSpaceOnUse">
<stop stop-color="#AECBE0"/>
<stop offset="0.48" stop-color="white"/>
<stop offset="1" stop-color="#AECBE0"/>
</linearGradient>
<linearGradient id="paint5_linear_3017_206" x1="39.5957" y1="25.6399" x2="39.6404" y2="22.0704" gradientUnits="userSpaceOnUse">
<stop stop-color="#AECBE0"/>
<stop offset="0.48" stop-color="white"/>
<stop offset="1" stop-color="#AECBE0"/>
</linearGradient>
<linearGradient id="paint6_linear_3017_206" x1="0.425449" y1="33.877" x2="0.702145" y2="-0.860692" gradientUnits="userSpaceOnUse">
<stop stop-color="#AECBE0"/>
<stop offset="0.48" stop-color="white"/>
<stop offset="1" stop-color="#AECBE0"/>
</linearGradient>
</defs>
</svg>
