<svg width="36" height="30" viewBox="0 0 36 30" fill="none" xmlns="http://www.w3.org/2000/svg">
<g id="Group 66">
<g id="Group">
<g id="Group_2">
<g id="Layer_1">
<path id="Vector" d="M31.7846 16.012C22.5811 16.012 13.4477 16.012 4.21607 16.012C4.21607 16.2465 4.21607 16.4693 4.21607 16.7038C4.21607 20.831 4.21607 24.9582 4.21607 29.0854C4.21607 29.8945 4.08961 30 3.13413 30C2.43157 30 1.729 30 1.02644 30C0.141212 30 0.014751 29.8945 0.014751 29.1441C0.014751 24.0437 0.014751 18.9433 0.014751 13.8312C0.014751 12.1545 0.0288025 10.4661 0.000699983 8.78941C-0.0133513 8.33213 0.183366 8.08591 0.661108 7.86313C6.2535 5.29535 11.8459 2.72757 17.4242 0.14806C17.8458 -0.0512657 18.169 -0.0512656 18.5905 0.159785C24.1969 2.91517 29.8034 5.65883 35.4098 8.39076C35.8454 8.60181 36 8.87149 36 9.29359C35.9859 15.9182 35.9859 22.5546 35.9859 29.1792C35.9859 29.8945 35.8595 30 35.0164 30C34.2717 30 33.5129 30 32.7682 30C31.9532 30 31.7846 29.8593 31.7846 29.1792C31.7846 25.0286 31.7846 20.8896 31.7846 16.739C31.7846 16.5045 31.7846 16.2817 31.7846 16.012ZM34.7494 28.9565C34.7635 28.722 34.7775 28.5461 34.7775 28.3702C34.7775 22.1794 34.7775 15.9769 34.7916 9.78604C34.7916 9.37566 34.6089 9.16461 34.2014 8.96529C28.9744 6.42095 23.7473 3.8649 18.5343 1.29711C18.0987 1.08606 17.8036 1.12124 17.3961 1.30884C12.2253 3.70075 7.05443 6.09265 1.86952 8.44938C1.36367 8.68389 1.20911 8.94184 1.20911 9.41084C1.22316 15.7072 1.22316 22.0035 1.22316 28.2881C1.22316 28.4992 1.23721 28.7102 1.25126 28.933C1.84141 28.933 2.38941 28.933 2.99362 28.933C2.99362 28.6516 2.99362 28.4288 2.99362 28.1943C2.99362 22.7774 2.99362 17.3604 2.99362 11.9552C2.99362 11.0758 3.10602 10.982 4.14582 10.982C13.3775 10.982 22.5951 10.982 31.8268 10.982C32.9087 10.982 33.0071 11.0641 33.0071 11.9903C33.0071 17.4073 33.0071 22.8243 33.0071 28.2295C33.0071 28.464 33.0071 28.6868 33.0071 28.9447C33.6253 28.9565 34.1593 28.9565 34.7494 28.9565ZM4.25823 12.9401C13.4618 12.9401 22.6092 12.9401 31.7565 12.9401C31.7565 12.6118 31.7565 12.3186 31.7565 12.0021C22.5811 12.0021 13.4337 12.0021 4.25823 12.0021C4.25823 12.3304 4.25823 12.6118 4.25823 12.9401ZM4.25823 14.9451C13.4618 14.9451 22.6092 14.9451 31.7565 14.9451C31.7565 14.6168 31.7565 14.3354 31.7565 14.0071C22.5811 14.0071 13.4337 14.0071 4.25823 14.0071C4.25823 14.3236 4.25823 14.6168 4.25823 14.9451Z" fill="url(#paint0_linear_3017_234)"/>
<path id="Vector_2" d="M22.2157 22.9767C22.2157 21.2062 22.2157 19.5295 22.2157 17.8529C22.2157 17.0673 22.3281 16.9852 23.2696 16.9852C25.3772 16.9852 27.4849 16.9852 29.5926 16.9852C30.4357 16.9852 30.6184 17.1376 30.6184 17.8529C30.6184 21.6283 30.6184 25.3921 30.6184 29.1675C30.6184 29.8476 30.4357 30 29.6348 30C25.0962 30 20.5436 30 16.0051 30C15.1339 30 15.0355 29.9062 15.0355 29.191C15.0355 27.397 15.0355 25.5914 15.0355 23.7975C15.0355 23.1057 15.176 22.9884 16.0332 22.9884C18.0565 22.965 20.0799 22.9767 22.2157 22.9767ZM20.9792 24.032C20.9792 24.4892 20.9652 24.9113 20.9792 25.3334C20.9933 25.8024 20.7122 26.0018 20.1642 26.0018C19.5038 25.99 18.8575 26.0018 18.1971 26.0018C17.635 26.0018 17.3961 25.779 17.4102 25.31C17.4242 24.8879 17.4102 24.4658 17.4102 24.0437C16.9465 24.0437 16.5952 24.0437 16.2158 24.0437C16.2158 25.6969 16.2158 27.3032 16.2158 28.9448C18.2111 28.9448 20.1502 28.9448 22.1314 28.9448C22.1314 27.2798 22.1314 25.6617 22.1314 24.032C21.752 24.032 21.4007 24.032 20.9792 24.032ZM23.4382 18.0287C23.4382 19.682 23.4382 21.3118 23.4382 22.9298C25.4475 22.9298 27.4006 22.9298 29.3397 22.9298C29.3397 21.2766 29.3397 19.6585 29.3397 18.0405C28.9603 18.0405 28.6231 18.0405 28.2015 18.0405C28.2015 18.4743 28.2015 18.8847 28.2015 19.2833C28.2156 19.764 27.9486 20.0103 27.3585 20.0103C26.6981 20.0103 26.0517 20.0103 25.3913 20.0103C24.8573 19.9985 24.5763 19.7875 24.5904 19.3185C24.6044 18.8964 24.5904 18.4743 24.5904 18.0405C24.1688 18.0287 23.8316 18.0287 23.4382 18.0287ZM23.4382 28.9448C25.4334 28.9448 27.3866 28.9448 29.3256 28.9448C29.3256 27.2798 29.3256 25.65 29.3256 24.0437C28.9322 24.0437 28.5809 24.0437 28.2015 24.0437C28.2015 24.4892 28.2015 24.8996 28.2015 25.31C28.2015 25.7555 27.9627 26.0018 27.3866 26.0018C26.7121 25.99 26.0377 26.0018 25.3491 26.0018C24.8292 26.0018 24.5763 25.779 24.5904 25.3452C24.6044 24.9231 24.5904 24.501 24.5904 24.0554C24.1688 24.0554 23.8035 24.0554 23.4241 24.0554C23.4382 25.6852 23.4382 27.2798 23.4382 28.9448ZM25.8409 18.0287C25.8409 18.357 25.8409 18.6384 25.8409 18.9433C26.2344 18.9433 26.5997 18.9433 26.965 18.9433C26.965 18.6267 26.965 18.3453 26.965 18.0287C26.5997 18.0287 26.2484 18.0287 25.8409 18.0287ZM19.7567 24.9465C19.7567 24.6417 19.7567 24.3485 19.7567 24.0437C19.3633 24.0437 18.998 24.0437 18.6326 24.0437C18.6326 24.3603 18.6326 24.6417 18.6326 24.9465C19.0261 24.9465 19.3633 24.9465 19.7567 24.9465ZM26.965 24.0437C26.5435 24.0437 26.2063 24.0437 25.8269 24.0437C25.8269 24.3485 25.8269 24.6299 25.8269 24.9465C26.2203 24.9465 26.5716 24.9465 26.965 24.9465C26.965 24.6299 26.965 24.3485 26.965 24.0437Z" fill="url(#paint1_linear_3017_234)"/>
<path id="Vector_3" d="M18.0003 6.98376C18.9137 6.98376 19.827 6.99548 20.7403 6.97203C21.3445 6.96031 21.6115 7.17136 21.6115 7.66381C21.6115 8.21489 21.6115 8.75424 21.6115 9.30532C21.6115 9.76259 21.3445 9.96192 20.7825 9.96192C18.9277 9.95019 17.087 9.95019 15.2322 9.96192C14.6702 9.96192 14.4032 9.76259 14.4032 9.30532C14.4032 8.74252 14.3892 8.16799 14.4032 7.60519C14.4173 7.18309 14.6702 6.97203 15.2041 6.98376C16.1315 6.99548 17.073 6.98376 18.0003 6.98376ZM15.6397 8.94184C17.2697 8.94184 18.8153 8.94184 20.3469 8.94184C20.3469 8.60181 20.3469 8.29696 20.3469 8.00384C18.7451 8.00384 17.1994 8.00384 15.6397 8.00384C15.6397 8.33214 15.6397 8.61354 15.6397 8.94184Z" fill="url(#paint2_linear_3017_234)"/>
</g>
</g>
</g>
</g>
<defs>
<linearGradient id="paint0_linear_3017_234" x1="-3.26235" y1="36.2968" x2="-2.87192" y2="-0.920435" gradientUnits="userSpaceOnUse">
<stop stop-color="#AECBE0"/>
<stop offset="0.48" stop-color="white"/>
<stop offset="1" stop-color="#AECBE0"/>
</linearGradient>
<linearGradient id="paint1_linear_3017_234" x1="13.6234" y1="32.7317" x2="13.7931" y2="16.5859" gradientUnits="userSpaceOnUse">
<stop stop-color="#AECBE0"/>
<stop offset="0.48" stop-color="white"/>
<stop offset="1" stop-color="#AECBE0"/>
</linearGradient>
<linearGradient id="paint2_linear_3017_234" x1="13.7432" y1="10.5896" x2="13.7625" y2="6.87952" gradientUnits="userSpaceOnUse">
<stop stop-color="#AECBE0"/>
<stop offset="0.48" stop-color="white"/>
<stop offset="1" stop-color="#AECBE0"/>
</linearGradient>
</defs>
</svg>
