<svg width="55" height="31" viewBox="0 0 55 31" fill="none" xmlns="http://www.w3.org/2000/svg">
<g id="Group 66">
<g id="Group">
<g id="Group_2">
<g id="Layer_5">
<path id="Vector" d="M51.9983 26.8033C50.8855 29.8426 48.6102 31.1879 45.9694 30.4073C44.458 29.9589 43.3951 28.979 42.8968 27.5008C42.6975 26.9029 42.4152 26.7535 41.8339 26.7535C37.2001 26.7701 32.5829 26.7535 27.9491 26.7867C27.617 26.7867 27.0855 27.0192 26.9692 27.2849C25.8897 29.5935 24.2953 30.7395 22.2192 30.6399C20.1099 30.5402 18.5653 29.2281 17.7515 26.7701C15.4927 26.7701 13.2008 26.7701 10.9088 26.7701C9.64652 26.7701 9.48044 26.604 9.46383 25.3417C9.46383 23.6643 9.46383 21.9702 9.46383 20.11C8.36766 20.11 7.30472 20.11 6.24177 20.11C5.09578 20.11 3.93318 20.1599 2.8038 20.0602C2.50485 20.0436 2.00659 19.5786 2.00659 19.2962C2.00659 18.9973 2.43841 18.6817 2.72076 18.416C2.82041 18.3163 3.06954 18.3828 3.25223 18.3828C6.59055 18.3828 9.92887 18.3828 13.2672 18.3828C13.4831 18.3828 13.7654 18.3329 13.8983 18.4326C14.1807 18.6651 14.5959 19.0305 14.546 19.2796C14.4796 19.5952 14.0644 20.0104 13.7488 20.0602C12.9848 20.1765 12.171 20.0934 11.2908 20.0934C11.2908 21.7211 11.2908 23.3155 11.2908 24.9597C13.4167 24.9597 15.5426 24.9597 17.7515 24.9597C18.2331 23.2491 19.2463 21.937 21.04 21.3723C23.4648 20.6249 25.9395 21.8373 26.853 24.2788C27.0357 24.777 27.2184 25.0428 27.7997 25.0262C31.5698 24.993 35.3399 25.0096 39.0935 25.0096C39.2263 25.0096 39.3592 24.9763 39.5751 24.9431C39.5751 17.4693 39.5751 10.0287 39.5751 2.50499C30.1249 2.50499 20.7078 2.50499 11.2409 2.50499C11.2409 3.38524 11.2409 4.21567 11.2409 5.17896C12.8354 5.17896 14.3633 5.17896 15.8913 5.17896C16.4726 5.17896 17.0373 5.22879 17.0539 5.95956C17.0705 6.69034 16.5557 6.90625 15.8913 6.90625C12.6195 6.90625 9.36418 6.90625 6.09229 6.90625C5.46117 6.90625 4.89648 6.77338 4.91309 5.99278C4.9297 5.17896 5.54421 5.17896 6.14212 5.17896C7.17185 5.17896 8.21819 5.17896 9.38079 5.17896C9.39739 4.74714 9.43061 4.38175 9.43061 3.99976C9.44722 0.794306 9.53026 0.727871 12.7689 0.727871C21.422 0.727871 30.0584 0.727871 38.7115 0.727871C38.9938 0.727871 39.2928 0.711263 39.5751 0.727871C40.7875 0.794305 41.3356 1.32578 41.3522 2.5382C41.3688 4.11601 41.4187 5.69383 41.3356 7.27164C41.2858 8.20172 41.6346 8.43424 42.4982 8.40102C44.1757 8.33458 45.8698 8.40102 47.5638 8.38441C48.5603 8.3678 49.2579 8.78302 49.7395 9.66327C51.2343 12.3871 52.8287 15.0777 54.2405 17.8513C54.6889 18.7315 54.855 19.8277 54.938 20.8408C55.0543 22.0865 54.9712 23.3487 54.9712 24.611C54.9546 26.3382 54.5394 26.7369 52.7955 26.7701C52.5464 26.7701 52.264 26.7867 51.9983 26.8033ZM51.9983 25.0428C52.4301 25.0262 52.8121 25.0096 53.1941 24.993C53.1941 23.2491 53.2273 21.6048 53.1775 19.9606C53.1609 19.5121 52.9782 19.0471 52.7623 18.6485C51.3174 16.0077 49.8724 13.3836 48.3776 10.776C48.2282 10.5103 47.8794 10.1781 47.6137 10.1781C45.5874 10.1283 43.5612 10.1449 41.4685 10.1449C41.4685 15.1773 41.4685 20.0602 41.4685 24.9431C42.2823 25.1923 42.6311 24.9763 42.93 24.1791C43.229 23.4151 43.8103 22.6678 44.4414 22.1529C46.8995 20.1931 50.8855 21.1232 51.9983 25.0428ZM25.3914 25.923C25.408 24.2622 24.0627 22.9003 22.4185 22.8837C20.8075 22.8837 19.4622 24.1957 19.429 25.8068C19.3791 27.451 20.7078 28.8627 22.3687 28.896C23.9797 28.9458 25.3748 27.5673 25.3914 25.923ZM44.3252 25.8566C44.3086 27.5175 45.6538 28.896 47.2981 28.896C48.9257 28.9126 50.3042 27.5008 50.2876 25.8566C50.271 24.229 48.9589 22.9169 47.3479 22.8837C45.7037 22.8671 44.3418 24.1957 44.3252 25.8566Z" fill="url(#paint0_linear_3017_696)"/>
<path id="Vector_2" d="M3.75052 9.96222C4.64738 9.96222 5.54424 9.96222 6.42449 9.96222C7.03901 9.96222 7.6037 10.1449 7.47083 10.8259C7.4044 11.158 6.8397 11.6397 6.49093 11.6563C4.63077 11.7393 2.77061 11.7393 0.927063 11.6563C0.594892 11.6397 0.113245 11.1414 0.0302023 10.7926C-0.135883 10.1283 0.412199 9.97883 0.96028 9.97883C1.89036 9.96222 2.82044 9.96222 3.75052 9.96222Z" fill="url(#paint1_linear_3017_696)"/>
<path id="Vector_3" d="M36.6521 5.31183C34.1608 5.31183 31.6696 5.31183 29.1783 5.31183C28.0655 5.31183 27.9326 5.4447 27.9326 6.54086C27.9326 8.91588 27.9326 11.2909 27.9326 13.7988C27.916 13.7988 27.916 13.7988 27.8994 13.7988V23.7473C30.8391 23.7473 33.7622 23.7473 36.7019 23.7473C37.632 23.7473 37.8645 23.5314 37.8645 22.5681C37.8645 17.2202 37.8645 11.8888 37.8645 6.54086C37.8645 5.52774 37.6486 5.31183 36.6521 5.31183ZM32.2176 6.8066C32.7159 6.8066 33.1145 6.8066 33.5463 6.8066C33.5463 7.25503 33.5463 7.65363 33.5463 8.10206C33.0979 8.10206 32.6827 8.10206 32.2176 8.10206C32.2176 7.67024 32.2176 7.27164 32.2176 6.8066ZM36.3532 22.2692C34.0612 22.2692 31.7526 22.2692 29.3942 22.2692C29.3942 19.9107 29.3942 17.652 29.3942 15.3268C29.8426 15.3268 30.2744 15.3268 30.7727 15.3268C30.7727 15.9579 30.7893 16.5558 30.7727 17.1537C30.7561 17.7848 31.055 18.0838 31.6696 18.0838C32.4668 18.0838 33.264 18.0838 34.0778 18.0838C34.7421 18.1004 35.0245 17.735 35.0411 17.1039C35.0411 16.5226 35.0411 15.9413 35.0411 15.3102C35.5061 15.3102 35.9047 15.3102 36.3698 15.3102C36.3532 17.6022 36.3532 19.9107 36.3532 22.2692ZM32.2176 16.589C32.2176 16.1406 32.2176 15.742 32.2176 15.3102C32.6661 15.3102 33.0647 15.3102 33.5629 15.3102C33.5629 15.7586 33.5629 16.1406 33.5629 16.589C33.0979 16.589 32.6827 16.589 32.2176 16.589ZM36.3698 13.7324C34.0612 13.7324 31.7692 13.7324 29.3942 13.7324C29.3942 11.4404 29.3942 9.13179 29.3942 6.78999C29.8426 6.78999 30.2578 6.78999 30.7727 6.78999C30.7727 7.4045 30.7893 8.00241 30.7727 8.60032C30.7395 9.26466 31.0883 9.58022 31.7194 9.58022C32.5 9.59683 33.264 9.58022 34.0446 9.58022C34.7421 9.58022 35.0411 9.23145 35.0411 8.55049C35.0411 7.9858 35.0411 7.4045 35.0411 6.78999C35.5393 6.78999 35.938 6.78999 36.3864 6.78999C36.3698 9.09858 36.3698 11.3906 36.3698 13.7324Z" fill="url(#paint2_linear_3017_696)"/>
</g>
</g>
</g>
</g>
<defs>
<linearGradient id="paint0_linear_3017_696" x1="-2.79571" y1="36.927" x2="-2.53178" y2="-0.199865" gradientUnits="userSpaceOnUse">
<stop stop-color="#AECBE0"/>
<stop offset="0.48" stop-color="white"/>
<stop offset="1" stop-color="#AECBE0"/>
</linearGradient>
<linearGradient id="paint1_linear_3017_696" x1="-0.678786" y1="12.0872" x2="-0.672354" y2="9.90811" gradientUnits="userSpaceOnUse">
<stop stop-color="#AECBE0"/>
<stop offset="0.48" stop-color="white"/>
<stop offset="1" stop-color="#AECBE0"/>
</linearGradient>
<linearGradient id="paint2_linear_3017_696" x1="26.9964" y1="27.6168" x2="27.5288" y2="4.75609" gradientUnits="userSpaceOnUse">
<stop stop-color="#AECBE0"/>
<stop offset="0.48" stop-color="white"/>
<stop offset="1" stop-color="#AECBE0"/>
</linearGradient>
</defs>
</svg>
