<svg width="37" height="29" viewBox="0 0 37 29" fill="none" xmlns="http://www.w3.org/2000/svg">
<path id="Subtract" fill-rule="evenodd" clip-rule="evenodd" d="M0 14.5519V4.01805L21.6649 0L36.3254 3.04069V23.5653H36.977V24.3798L21.6649 28.2893L6.40717 24.3798V23.8911H7.00445L0 14.5519ZM14.3346 6.35287L2.44336 4.23524L21.7192 0.868767L32.4159 3.09499L14.3346 6.35287ZM0.92302 5.10402V13.5202L13.2487 16.3437L13.5202 7.92752L0.92302 5.10402ZM14.2803 18.5699L1.79177 15.9093L7.38447 23.0767L20.1988 26.5517L14.2803 18.5699ZM15.475 8.19901V17.3211L21.122 24.8142V7.00445L15.475 8.19901ZM22.3708 19.1129V13.6288L35.6196 10.8053V16.2894L22.3708 19.1129ZM22.4795 20.5247L35.511 17.5926V23.131L22.4795 26.5517V20.5247Z" fill="url(#paint0_linear_3069_149)"/>
<defs>
<linearGradient id="paint0_linear_3069_149" x1="-3.35088" y1="34.227" x2="-3.01288" y2="-0.868555" gradientUnits="userSpaceOnUse">
<stop stop-color="#AECBE0"/>
<stop offset="0.48" stop-color="white"/>
<stop offset="1" stop-color="#AECBE0"/>
</linearGradient>
</defs>
</svg>
