<svg width="49" height="32" viewBox="0 0 49 32" fill="none" xmlns="http://www.w3.org/2000/svg">
<g id="Group 66">
<g id="Group">
<g id="Group_2">
<g id="Layer_3">
<path id="Vector" d="M18.6691 14.475C20.9579 12.1861 23.1317 9.99948 25.3055 7.82568C25.4206 7.7106 25.5229 7.58273 25.6508 7.50601C25.996 7.27584 26.3541 7.28863 26.6482 7.59552C26.9423 7.90241 26.9423 8.24766 26.6993 8.59291C26.6226 8.70799 26.5075 8.81029 26.4052 8.91258C24.1036 11.2143 21.8147 13.5159 19.513 15.8048C18.8864 16.4314 18.5796 16.4314 17.953 15.8176C16.7126 14.5773 15.4595 13.3497 14.2447 12.0838C14.0401 11.8792 13.8739 11.4956 13.9123 11.2143C14.0146 10.5749 14.7434 10.4215 15.2421 10.9202C16.2779 11.9303 17.3008 12.9661 18.3238 13.989C18.4389 14.1297 18.5284 14.2831 18.6691 14.475Z" fill="url(#paint0_linear_3017_308)"/>
<path id="Vector_2" d="M26.0856 22.8249C24.2954 22.8249 22.518 22.8249 20.7278 22.8249C20.5488 22.8249 20.3698 22.8249 20.2036 22.7866C19.82 22.7098 19.6154 22.4541 19.5898 22.0961C19.5642 21.7252 19.756 21.4439 20.1141 21.3288C20.2803 21.2777 20.4593 21.2649 20.6255 21.2649C24.2699 21.2649 27.927 21.2649 31.5713 21.2649C31.8014 21.2649 32.0955 21.2905 32.2362 21.4311C32.4152 21.6101 32.5814 21.9298 32.5431 22.16C32.5047 22.3902 32.249 22.6075 32.0316 22.761C31.8909 22.8505 31.6608 22.8249 31.469 22.8249C29.6788 22.8249 27.8886 22.8249 26.0856 22.8249Z" fill="url(#paint1_linear_3017_308)"/>
<path id="Vector_3" d="M7.263 19.5386C5.70298 19.5386 4.14296 19.5386 2.57015 19.5386C1.91801 19.5386 1.57276 19.2701 1.58555 18.7714C1.58555 18.2727 1.94359 18.0042 2.58294 18.0042C5.72855 18.0042 8.86138 18.0042 12.007 18.0042C12.365 18.0042 12.7103 18.0809 12.8382 18.4262C12.9149 18.6563 12.9405 19.0271 12.7998 19.1678C12.6208 19.3724 12.2755 19.5258 11.9942 19.5258C10.4214 19.5514 8.8486 19.5386 7.263 19.5386Z" fill="url(#paint2_linear_3017_308)"/>
<path id="Vector_4" d="M15.4085 26.1112C15.4213 26.9679 14.718 27.7096 13.8612 27.7351C12.9917 27.7607 12.2245 27.0318 12.2117 26.1623C12.1989 25.2928 12.9278 24.5511 13.8101 24.5384C14.6796 24.5384 15.3957 25.2416 15.4085 26.1112Z" fill="url(#paint3_linear_3017_308)"/>
<path id="Vector_5" d="M40.8163 27.7351C39.9724 27.7351 39.2307 27.0063 39.2179 26.1495C39.2051 25.28 39.9596 24.5384 40.8291 24.5384C41.6858 24.5511 42.4147 25.2544 42.4275 26.124C42.4403 26.9935 41.6858 27.7479 40.8163 27.7351Z" fill="url(#paint4_linear_3017_308)"/>
<path id="Vector_6" d="M45.8032 13.1835C45.6754 13.1451 45.5219 13.0172 45.4963 12.9021C45.0744 11.3038 44.678 9.70537 44.2816 8.11978C44.8698 7.74896 44.8954 7.69781 44.8698 6.61091C44.8314 4.60334 43.476 3.27349 41.4684 3.2607C39.7805 3.2607 38.0926 3.2607 36.392 3.2607C36.2257 3.2607 36.0595 3.24791 35.8549 3.23513C35.8549 2.72364 35.8549 2.26331 35.8549 1.80298C35.8421 0.588205 35.2539 0 34.0264 0C24.3721 0 14.7179 0 5.07646 0C3.81054 0 3.22234 0.600992 3.22234 1.8797C3.22234 6.30402 3.22234 10.7156 3.22234 15.1399C3.22234 15.2677 3.20955 15.3956 3.22234 15.5235C3.2607 15.971 3.58038 16.2651 4.00235 16.2651C4.43711 16.2651 4.71842 15.971 4.75679 15.5107C4.76957 15.3573 4.76957 15.191 4.76957 15.0376C4.76957 10.7411 4.76957 6.45746 4.76957 2.16101C4.76957 1.95642 4.76957 1.76461 4.76957 1.56002C14.6668 1.56002 24.4616 1.56002 34.3332 1.56002C34.3332 1.76461 34.3332 1.95642 34.3332 2.14823C34.3332 6.47025 34.3332 10.7923 34.3332 15.1143C34.3332 15.255 34.3205 15.4084 34.3332 15.5491C34.3716 15.9966 34.7041 16.2907 35.126 16.2779C35.5352 16.2651 35.8293 15.9838 35.8549 15.5491C35.8677 15.2677 35.8549 14.9864 35.8549 14.7051C35.9572 14.6795 35.9956 14.654 36.0467 14.654C39.0645 14.654 42.0822 14.6284 45.0872 14.6668C45.1255 14.6668 45.1511 14.6668 45.1895 14.6668C45.1895 14.6668 45.2022 14.6668 45.2278 14.6795C45.637 14.7179 46.0206 14.8586 46.3403 15.0887C46.8774 15.37 47.3888 15.7792 47.3888 16.3802C47.3888 17.1219 47.3888 19.4363 47.3888 21.2009H47.4016C47.4016 21.7124 47.4016 22.2239 47.4016 22.7226C47.4016 23.3364 47.4016 23.9374 47.4016 24.5639C46.8773 24.5639 46.3914 24.5511 45.8927 24.5767C45.5603 24.5895 45.3941 24.4872 45.2534 24.1675C44.3711 22.3134 42.8622 21.3032 40.8163 21.316C38.7959 21.316 37.3126 22.339 36.4048 24.1548C36.328 24.3082 36.149 24.4233 36.0211 24.5511C35.97 24.3849 35.8805 24.2187 35.8805 24.0525C35.8677 22.4413 35.8677 20.8301 35.8677 19.2189C35.8677 19.0911 35.8677 18.9632 35.8677 18.8353C35.8421 18.3494 35.548 18.0298 35.1133 18.017C34.6657 18.017 34.3332 18.3494 34.3332 18.8609C34.3205 20.5872 34.3332 22.3006 34.3332 24.0269C34.3332 24.1931 34.3332 24.3593 34.3332 24.5256C34.1414 24.5384 34.0264 24.5511 33.9241 24.5511C28.8987 24.5511 23.8734 24.5511 18.8481 24.5639C18.5157 24.5639 18.3878 24.4361 18.2599 24.1548C17.3393 22.1472 15.3317 21.0475 13.1579 21.3544C11.3933 21.6101 10.1657 22.5947 9.3857 24.1803C9.30898 24.3338 9.11717 24.5384 8.9893 24.5384C7.69781 24.5639 6.40632 24.5639 5.11482 24.5511C5.01253 24.5511 4.82072 24.4233 4.82072 24.3593C4.79515 23.8734 4.80793 23.3875 4.80793 22.8505C5.06367 22.8505 5.25548 22.8505 5.44729 22.8505C6.32959 22.8505 7.19911 22.8633 8.08142 22.8377C8.58012 22.8249 8.88701 22.518 8.89979 22.0832C8.91258 21.6357 8.58012 21.316 8.06863 21.2904C7.95355 21.2777 7.85125 21.2904 7.73617 21.2904C5.54958 21.2904 3.363 21.3032 1.17641 21.2777C0.703288 21.2777 0.306889 21.3672 0 21.7508C0 21.9426 0 22.1344 0 22.3262C0.230167 22.7354 0.575417 22.876 1.03575 22.8633C1.76461 22.8505 2.49348 22.8633 3.2607 22.8633C3.2607 23.4003 3.2607 23.8734 3.2607 24.3466C3.2607 25.4718 3.91284 26.1367 5.0381 26.1367C6.18894 26.1367 7.33977 26.1367 8.47782 26.1367C8.64405 26.1367 8.81028 26.1367 8.97651 26.1367C9.07881 28.9371 11.0736 30.7912 13.4264 31.0214C14.6412 31.1365 15.7664 30.8168 16.751 30.0752C18.0425 29.1033 18.6563 27.7735 18.7458 26.1623C24.5128 26.1623 30.2286 26.1623 35.9444 26.1623C36.507 29.2951 38.2205 31.0086 40.7779 31.0342C41.9543 31.047 43.0029 30.6889 43.9235 29.9601C45.1255 28.9883 45.6882 27.6968 45.7649 26.1495C46.5065 26.1495 47.2226 26.1495 47.9387 26.1495C48.757 26.1495 49 25.9066 49 25.101C49 22.5308 49 19.9606 49 17.3904C48.9616 15.2166 47.8747 13.7844 45.8032 13.1835ZM35.8933 4.85908C36.0339 4.84629 36.1618 4.82072 36.2897 4.82072C38.0415 4.82072 39.7933 4.80793 41.5452 4.82072C42.6065 4.83351 43.3098 5.49843 43.297 6.49582C40.8419 6.49582 38.3867 6.49582 35.8933 6.49582C35.8933 5.94598 35.8933 5.40892 35.8933 4.85908ZM35.8933 13.0684C35.8933 11.4316 35.8933 9.80767 35.8933 8.10699C36.4815 8.10699 37.0441 8.10699 37.5939 8.10699C39.154 8.10699 40.714 8.11978 42.274 8.10699C42.5809 8.10699 42.7088 8.18372 42.7855 8.50339C43.1307 9.96112 43.5016 11.4061 43.8724 12.851C43.8852 12.9149 43.8852 12.9789 43.8852 13.0684C41.2255 13.0684 38.5785 13.0684 35.8933 13.0684ZM13.81 29.4614C12.007 29.4486 10.4854 27.9269 10.4982 26.124C10.511 24.3082 12.007 22.8249 13.8356 22.8377C15.6897 22.8377 17.1347 24.3082 17.1219 26.1495C17.1091 27.9781 15.6258 29.4742 13.81 29.4614ZM40.8291 29.4614C39.0133 29.4614 37.5172 27.9653 37.5172 26.1367C37.5172 24.3082 38.9877 22.8377 40.8291 22.8377C42.6704 22.8377 44.1537 24.3082 44.1537 26.1367C44.1537 27.9525 42.6448 29.4614 40.8291 29.4614Z" fill="url(#paint5_linear_3017_308)"/>
</g>
</g>
</g>
</g>
<defs>
<linearGradient id="paint0_linear_3017_308" x1="12.7315" y1="18.1504" x2="12.8275" y2="7.0732" gradientUnits="userSpaceOnUse">
<stop stop-color="#AECBE0"/>
<stop offset="0.48" stop-color="white"/>
<stop offset="1" stop-color="#AECBE0"/>
</linearGradient>
<linearGradient id="paint1_linear_3017_308" x1="18.413" y1="23.1564" x2="18.4159" y2="21.2167" gradientUnits="userSpaceOnUse">
<stop stop-color="#AECBE0"/>
<stop offset="0.48" stop-color="white"/>
<stop offset="1" stop-color="#AECBE0"/>
</linearGradient>
<linearGradient id="paint2_linear_3017_308" x1="0.559799" y1="19.8646" x2="0.563063" y2="17.9568" gradientUnits="userSpaceOnUse">
<stop stop-color="#AECBE0"/>
<stop offset="0.48" stop-color="white"/>
<stop offset="1" stop-color="#AECBE0"/>
</linearGradient>
<linearGradient id="paint3_linear_3017_308" x1="11.9218" y1="28.4069" x2="11.9718" y2="24.4405" gradientUnits="userSpaceOnUse">
<stop stop-color="#AECBE0"/>
<stop offset="0.48" stop-color="white"/>
<stop offset="1" stop-color="#AECBE0"/>
</linearGradient>
<linearGradient id="paint4_linear_3017_308" x1="38.9269" y1="28.4063" x2="38.9766" y2="24.4405" gradientUnits="userSpaceOnUse">
<stop stop-color="#AECBE0"/>
<stop offset="0.48" stop-color="white"/>
<stop offset="1" stop-color="#AECBE0"/>
</linearGradient>
<linearGradient id="paint5_linear_3017_308" x1="-4.44041" y1="37.5603" x2="-4.13324" y2="-0.954263" gradientUnits="userSpaceOnUse">
<stop stop-color="#AECBE0"/>
<stop offset="0.48" stop-color="white"/>
<stop offset="1" stop-color="#AECBE0"/>
</linearGradient>
</defs>
</svg>
