<svg width="44" height="39" viewBox="0 0 44 39" fill="none" xmlns="http://www.w3.org/2000/svg">
<g id="Group 66">
<g id="Group">
<g id="Group_2">
<g id="Layer_6">
<path id="Vector" d="M23.424 27.7397C21.9165 23.577 20.409 19.4656 18.9186 15.3372C18.0107 12.819 17.1028 10.3008 16.1606 7.79971C15.8865 7.0631 16.0064 6.65196 16.7944 6.36074C21.3683 4.7162 25.9422 3.05454 30.516 1.37574C31.2013 1.11878 31.5953 1.25582 31.8351 1.94105C32.1435 2.83184 32.5203 3.68837 32.7602 4.59629C32.8458 4.90464 32.7259 5.46995 32.5203 5.58986C32.0578 5.86395 31.7494 5.50421 31.5953 5.04168C31.3212 4.27081 31.03 3.49993 30.7216 2.67766C29.2484 3.20871 27.8265 3.72263 26.319 4.27081C26.5589 4.97316 26.7987 5.62413 27.0385 6.27509C27.4325 7.37145 27.364 7.50849 26.3019 7.90249C25.5482 8.17658 24.7944 8.41641 24.0578 8.72476C23.2869 9.06737 22.8929 8.79329 22.6531 8.05667C22.4304 7.35432 22.1563 6.66909 21.8651 5.88108C20.3747 6.41213 18.9529 6.94318 17.4454 7.47423C18.576 10.5749 19.6724 13.607 20.8201 16.7247C25.257 15.1145 29.6424 13.5213 34.0963 11.8939C33.6167 10.5749 33.1713 9.29007 32.6916 8.02241C32.5203 7.55988 32.3833 7.08023 32.9657 6.87466C33.5653 6.65196 33.7537 7.14875 33.9079 7.59414C35.8437 12.9218 37.7794 18.2322 39.7152 23.5599C39.8008 23.7997 39.9036 24.0395 40.0064 24.3307C40.6402 24.108 41.2569 23.8682 41.8736 23.6626C42.4218 23.4742 42.8158 23.6112 43.0042 24.2108C43.1927 24.8104 43.3983 25.3928 43.6552 25.9753C43.9978 26.7461 43.7237 27.123 42.9871 27.38C38.7216 28.9046 34.4732 30.4635 30.2248 32.0052C29.8993 32.1252 29.591 32.2622 29.2655 32.3479C28.0492 32.6733 27.2784 33.153 26.9357 34.6433C26.4047 36.9388 24.5546 38.0866 22.2077 38.3093C20.2719 38.4977 18.1649 37.2643 17.2227 35.4485C16.1949 33.4956 16.4518 31.2001 17.9251 29.4528C18.2163 29.1102 18.4218 28.8532 18.2334 28.3393C15.3212 20.3736 12.4261 12.4078 9.53107 4.44211C9.4968 4.33933 9.42828 4.23655 9.34263 4.06524C7.33835 4.78473 5.3512 5.50421 3.34692 6.20657C2.95292 6.34361 2.54179 6.48065 2.14778 6.65196C1.46256 6.96031 1.01716 6.82327 0.777334 6.05239C0.588898 5.40143 0.314807 4.7676 0.0749787 4.13376C-0.113458 3.61985 0.0578489 3.29436 0.537506 3.12306C3.29553 2.12948 6.03643 1.08452 8.81158 0.176597C10.6103 -0.405844 12.152 0.484947 12.8373 2.36931C14.4989 6.87466 16.1435 11.3971 17.788 15.9196C19.0899 19.4828 20.409 23.0117 21.6424 26.592C21.9507 27.5342 22.4133 27.8768 23.424 27.7397ZM21.2484 17.9924C22.5674 21.5898 23.8351 25.1187 25.1713 28.6134C25.394 29.213 25.8908 29.5384 26.7473 29.213C30.4475 27.8082 34.182 26.4892 37.8993 25.1359C38.1905 25.0331 38.4646 24.896 38.773 24.7419C37.3512 20.8532 35.9464 16.9988 34.5417 13.1273C33.0171 13.6926 31.5781 14.2066 30.122 14.7547C30.4304 15.577 30.6874 16.3307 30.9786 17.0674C31.2013 17.6498 31.0471 18.0609 30.4475 18.2665C29.5396 18.592 28.6145 18.9175 27.7238 19.2601C27.1071 19.4999 26.7473 19.2943 26.5417 18.6948C26.2848 17.9239 25.9764 17.1701 25.6852 16.365C24.1435 16.9474 22.7388 17.4442 21.2484 17.9924ZM20.7002 27.774C19.4326 24.2965 18.182 20.8875 16.9486 17.4785C15.1842 12.6134 13.4197 7.74832 11.6381 2.90036C11.1927 1.66696 10.3191 1.08452 9.20559 1.44426C6.61887 2.30079 4.06641 3.27723 1.4283 4.21942C1.5996 4.64768 1.73665 5.00742 1.89082 5.40143C4.25484 4.5449 6.55034 3.72263 8.86297 2.90036C10.0792 2.45496 10.1306 2.48923 10.576 3.7055C13.4368 11.5856 16.2977 19.4656 19.1756 27.3457C19.2784 27.6198 19.4154 27.8939 19.5353 28.1851C19.9465 28.0481 20.272 27.9282 20.7002 27.774ZM21.9165 37.0416C24.1949 37.0416 26.0107 35.2258 26.0107 32.9817C25.9936 30.7718 24.1777 28.956 21.9679 28.956C19.7409 28.956 17.9079 30.7376 17.8908 32.9303C17.8565 35.2429 19.6381 37.0416 21.9165 37.0416ZM27.1756 31.7825C32.2634 29.9324 37.2998 28.0995 42.3704 26.2494C42.182 25.7868 42.0449 25.4442 41.8908 25.0673C36.8201 26.9175 31.7837 28.7504 26.7302 30.5834C26.8844 31.0117 27.0043 31.32 27.1756 31.7825ZM26.9015 15.9539C27.1584 16.6391 27.3811 17.2558 27.6381 17.941C28.3405 17.6841 28.9743 17.4614 29.6424 17.2044C29.3683 16.4849 29.1285 15.8682 28.8886 15.2173C28.1692 15.4742 27.5696 15.6969 26.9015 15.9539ZM23.0642 5.48708C23.3383 6.20657 23.5782 6.80614 23.818 7.47423C24.5203 7.21727 25.137 6.99457 25.8051 6.73761C25.531 6.01813 25.2912 5.40143 25.0514 4.75046C24.349 5.00742 23.7495 5.23012 23.0642 5.48708Z" fill="url(#paint0_linear_3017_419)"/>
<path id="Vector_2" d="M20.0149 33.0159C20.0149 31.9538 20.9228 31.0459 21.9678 31.063C22.9956 31.0802 23.835 31.9367 23.835 32.9988C23.835 34.078 22.9442 34.9688 21.8993 34.9517C20.8714 34.9174 20.0149 34.0609 20.0149 33.0159ZM21.0599 33.0159C21.4539 33.29 21.7108 33.6155 21.8993 33.5641C22.1562 33.5127 22.3618 33.1872 22.5845 32.9988C22.3618 32.7932 22.1562 32.4849 21.8993 32.4335C21.6937 32.3992 21.4367 32.7247 21.0599 33.0159Z" fill="url(#paint1_linear_3017_419)"/>
</g>
</g>
</g>
</g>
<defs>
<linearGradient id="paint0_linear_3017_419" x1="-3.96932" y1="46.3731" x2="-3.44555" y2="-1.17542" gradientUnits="userSpaceOnUse">
<stop stop-color="#AECBE0"/>
<stop offset="0.48" stop-color="white"/>
<stop offset="1" stop-color="#AECBE0"/>
</linearGradient>
<linearGradient id="paint1_linear_3017_419" x1="19.6687" y1="35.7682" x2="19.7305" y2="30.9437" gradientUnits="userSpaceOnUse">
<stop stop-color="#AECBE0"/>
<stop offset="0.48" stop-color="white"/>
<stop offset="1" stop-color="#AECBE0"/>
</linearGradient>
</defs>
</svg>
