<svg width="37" height="29" viewBox="0 0 37 29" fill="none" xmlns="http://www.w3.org/2000/svg">
<path id="Subtract" fill-rule="evenodd" clip-rule="evenodd" d="M0.0230713 4.72878V15.2626L7.02752 24.6019H6.43024V25.0905L21.688 29L37 25.0905V24.2761H36.3485V3.75141L21.688 0.710724L0.0230713 4.72878ZM2.46644 4.94597L14.3577 7.06359L32.4389 3.80571L21.7422 1.57949L2.46644 4.94597ZM0.946091 14.2309V5.81474L13.5432 8.63824L13.2717 17.0544L0.946091 14.2309ZM1.81485 16.6201L14.3034 19.2807L20.2219 27.2625L7.40754 23.7874L1.81485 16.6201ZM15.498 18.0318V8.90973L21.145 7.71517V25.5249L15.498 18.0318ZM22.4481 7.60658L35.4253 5.10887V10.593L22.4481 13.2536V7.60658ZM22.3939 19.8236V14.3395L35.6426 11.516V17.0001L22.3939 19.8236ZM22.5025 21.2354L35.5341 18.3033V23.8417L22.5025 27.2625V21.2354Z" fill="url(#paint0_linear_3069_148)"/>
<defs>
<linearGradient id="paint0_linear_3069_148" x1="-3.32781" y1="34.9377" x2="-2.98981" y2="-0.157831" gradientUnits="userSpaceOnUse">
<stop stop-color="#AECBE0"/>
<stop offset="0.48" stop-color="white"/>
<stop offset="1" stop-color="#AECBE0"/>
</linearGradient>
</defs>
</svg>
