<svg width="45" height="28" viewBox="0 0 45 28" fill="none" xmlns="http://www.w3.org/2000/svg">
<g id="Group 66">
<g id="Group">
<g id="Group_2">
<g id="Layer_3">
<path id="Vector" d="M16.8383 13.0555C18.9027 10.9911 20.8634 9.01891 22.824 7.05828C22.9278 6.95448 23.02 6.83915 23.1354 6.76995C23.4468 6.56235 23.7697 6.57388 24.035 6.85068C24.3002 7.12747 24.3002 7.43887 24.0811 7.75026C24.0119 7.85406 23.9081 7.94633 23.8158 8.03859C21.7399 10.1146 19.6754 12.1905 17.5995 14.2549C17.0344 14.8201 16.7576 14.8201 16.1924 14.2665C15.0737 13.1478 13.9435 12.0406 12.8478 10.8988C12.6633 10.7143 12.5134 10.3683 12.548 10.1146C12.6402 9.5379 13.2976 9.3995 13.7474 9.84929C14.6816 10.7604 15.6042 11.6946 16.5269 12.6172C16.6307 12.7441 16.7114 12.8825 16.8383 13.0555Z" fill="url(#paint0_linear_3017_456)"/>
<path id="Vector_2" d="M23.5276 20.5866C21.913 20.5866 20.3099 20.5866 18.6952 20.5866C18.5338 20.5866 18.3723 20.5866 18.2224 20.552C17.8764 20.4828 17.6919 20.2521 17.6688 19.9292C17.6457 19.5948 17.8187 19.341 18.1417 19.2372C18.2916 19.1911 18.453 19.1796 18.603 19.1796C21.8899 19.1796 25.1884 19.1796 28.4753 19.1796C28.6829 19.1796 28.9482 19.2026 29.0751 19.3295C29.2365 19.491 29.3865 19.7793 29.3519 19.9869C29.3173 20.1945 29.0866 20.3905 28.8905 20.5289C28.7637 20.6097 28.5561 20.5866 28.3831 20.5866C26.7684 20.5866 25.1538 20.5866 23.5276 20.5866Z" fill="url(#paint1_linear_3017_456)"/>
<path id="Vector_3" d="M6.55071 17.6226C5.14366 17.6226 3.73662 17.6226 2.31805 17.6226C1.72986 17.6226 1.41846 17.3804 1.43 16.9306C1.43 16.4808 1.75292 16.2386 2.32958 16.2386C5.16673 16.2386 7.99235 16.2386 10.8295 16.2386C11.1524 16.2386 11.4638 16.3078 11.5791 16.6192C11.6483 16.8268 11.6714 17.1613 11.5445 17.2882C11.3831 17.4727 11.0717 17.6111 10.818 17.6111C9.39939 17.6342 7.98081 17.6226 6.55071 17.6226Z" fill="url(#paint2_linear_3017_456)"/>
<path id="Vector_4" d="M13.8975 23.5507C13.909 24.3234 13.2747 24.9923 12.502 25.0154C11.7177 25.0384 11.0257 24.381 11.0142 23.5968C11.0027 22.8125 11.66 22.1436 12.4558 22.1321C13.2401 22.1321 13.8859 22.7664 13.8975 23.5507Z" fill="url(#paint3_linear_3017_456)"/>
<path id="Vector_5" d="M36.8137 25.0154C36.0525 25.0154 35.3836 24.358 35.3721 23.5853C35.3606 22.801 36.041 22.1321 36.8253 22.1321C37.598 22.1436 38.2554 22.7779 38.2669 23.5622C38.2784 24.3464 37.598 25.0269 36.8137 25.0154Z" fill="url(#paint4_linear_3017_456)"/>
<path id="Vector_6" d="M41.3117 11.8907C41.1963 11.8561 41.0579 11.7407 41.0349 11.6369C40.6543 10.1953 40.2967 8.75364 39.9392 7.32354C40.4697 6.98908 40.4928 6.94294 40.4697 5.96263C40.4351 4.15193 39.2126 2.95248 37.4019 2.94095C35.8796 2.94095 34.3572 2.94095 32.8233 2.94095C32.6733 2.94095 32.5234 2.92941 32.3389 2.91788C32.3389 2.45656 32.3389 2.04136 32.3389 1.62617C32.3274 0.530524 31.7968 0 30.6896 0C21.9821 0 13.2746 0 4.57865 0C3.43687 0 2.90635 0.542057 2.90635 1.69537C2.90635 5.68583 2.90635 9.66476 2.90635 13.6552C2.90635 13.7706 2.89481 13.8859 2.90635 14.0012C2.94095 14.4049 3.22928 14.6701 3.60987 14.6701C4.00199 14.6701 4.25572 14.4049 4.29032 13.9897C4.30186 13.8513 4.30186 13.7014 4.30186 13.563C4.30186 9.68783 4.30186 5.82423 4.30186 1.9491C4.30186 1.76457 4.30186 1.59157 4.30186 1.40704C13.2285 1.40704 22.0629 1.40704 30.9664 1.40704C30.9664 1.59157 30.9664 1.76457 30.9664 1.93757C30.9664 5.83576 30.9664 9.73396 30.9664 13.6322C30.9664 13.759 30.9549 13.8974 30.9664 14.0243C31.001 14.4279 31.3009 14.6932 31.6815 14.6817C32.0506 14.6701 32.3158 14.4164 32.3389 14.0243C32.3504 13.7706 32.3389 13.5168 32.3389 13.2631C32.4311 13.24 32.4657 13.217 32.5119 13.217C35.2337 13.217 37.9555 13.1939 40.6658 13.2285C40.7004 13.2285 40.7235 13.2285 40.7581 13.2285C40.7581 13.2285 40.7696 13.2285 40.7927 13.24C41.1617 13.2746 41.5077 13.4015 41.796 13.6091C42.2804 13.8628 42.7418 14.2319 42.7418 14.7739C42.7418 15.4429 42.7418 17.5304 42.7418 19.1219H42.7533C42.7533 19.5833 42.7533 20.0446 42.7533 20.4944C42.7533 21.048 42.7533 21.59 42.7533 22.1551C42.2804 22.1551 41.8422 22.1436 41.3924 22.1667C41.0925 22.1782 40.9426 22.0859 40.8157 21.7976C40.0199 20.1253 38.659 19.2142 36.8137 19.2257C34.9915 19.2257 33.6537 20.1484 32.8348 21.7861C32.7656 21.9245 32.6041 22.0283 32.4888 22.1436C32.4427 21.9937 32.3619 21.8437 32.3619 21.6938C32.3504 20.2406 32.3504 18.7875 32.3504 17.3343C32.3504 17.219 32.3504 17.1036 32.3504 16.9883C32.3274 16.55 32.0621 16.2617 31.67 16.2502C31.2663 16.2502 30.9664 16.55 30.9664 17.0114C30.9549 18.5683 30.9664 20.1138 30.9664 21.6707C30.9664 21.8207 30.9664 21.9706 30.9664 22.1205C30.7934 22.1321 30.6896 22.1436 30.5974 22.1436C26.0649 22.1436 21.5323 22.1436 16.9998 22.1551C16.7 22.1551 16.5846 22.0398 16.4693 21.7861C15.6389 19.9754 13.8282 18.9835 11.8676 19.2603C10.276 19.491 9.16883 20.379 8.46531 21.8091C8.39612 21.9475 8.22312 22.1321 8.10779 22.1321C6.94294 22.1551 5.7781 22.1551 4.61325 22.1436C4.52099 22.1436 4.34799 22.0283 4.34799 21.9706C4.32492 21.5323 4.33646 21.0941 4.33646 20.6097C4.56712 20.6097 4.74012 20.6097 4.91311 20.6097C5.7089 20.6097 6.49315 20.6212 7.28894 20.5982C7.73873 20.5866 8.01552 20.3098 8.02706 19.9177C8.03859 19.5141 7.73873 19.2257 7.2774 19.2027C7.1736 19.1911 7.08134 19.2027 6.97754 19.2027C5.00538 19.2027 3.03321 19.2142 1.06105 19.1911C0.634322 19.1911 0.276795 19.2719 0 19.6179C0 19.7908 0 19.9638 0 20.1368C0.207596 20.5059 0.518991 20.6328 0.934183 20.6212C1.59157 20.6097 2.24896 20.6212 2.94095 20.6212C2.94095 21.1056 2.94095 21.5324 2.94095 21.9591C2.94095 22.974 3.52914 23.5737 4.54405 23.5737C5.58203 23.5737 6.62001 23.5737 7.64646 23.5737C7.79639 23.5737 7.94632 23.5737 8.09625 23.5737C8.18852 26.0995 9.98769 27.7718 12.1098 27.9794C13.2054 28.0832 14.2203 27.7948 15.1084 27.1259C16.2732 26.2494 16.8268 25.05 16.9076 23.5968C22.109 23.5968 27.2643 23.5968 32.4196 23.5968C32.9271 26.4224 34.4725 27.9678 36.7791 27.9909C37.8402 28.0024 38.7859 27.6795 39.6163 27.0221C40.7004 26.1456 41.2079 24.9808 41.2771 23.5852C41.946 23.5852 42.5918 23.5852 43.2377 23.5852C43.9758 23.5852 44.1949 23.3661 44.1949 22.6395C44.1949 20.3214 44.1949 18.0032 44.1949 15.6851C44.1603 13.7244 43.18 12.4327 41.3117 11.8907ZM32.3735 4.38259C32.5003 4.37106 32.6157 4.34799 32.731 4.34799C34.3111 4.34799 35.8911 4.33646 37.4711 4.34799C38.4284 4.35952 39.0627 4.95924 39.0512 5.85883C36.8368 5.85883 34.6224 5.85883 32.3735 5.85883C32.3735 5.3629 32.3735 4.87851 32.3735 4.38259ZM32.3735 11.7869C32.3735 10.3106 32.3735 8.84591 32.3735 7.312C32.904 7.312 33.4115 7.312 33.9074 7.312C35.3144 7.312 36.7215 7.32354 38.1285 7.312C38.4053 7.312 38.5206 7.3812 38.5898 7.66953C38.9012 8.98431 39.2357 10.2875 39.5702 11.5908C39.5817 11.6485 39.5817 11.7061 39.5817 11.7869C37.1828 11.7869 34.7954 11.7869 32.3735 11.7869ZM12.4558 26.5723C10.8296 26.5608 9.45716 25.1884 9.4687 23.5622C9.48023 21.9245 10.8296 20.5866 12.4788 20.5982C14.1511 20.5982 15.4544 21.9245 15.4429 23.5852C15.4313 25.2345 14.0935 26.5839 12.4558 26.5723ZM36.8253 26.5723C35.1876 26.5723 33.8382 25.223 33.8382 23.5737C33.8382 21.9245 35.1645 20.5982 36.8253 20.5982C38.486 20.5982 39.8239 21.9245 39.8239 23.5737C39.8239 25.2114 38.463 26.5723 36.8253 26.5723Z" fill="url(#paint5_linear_3017_456)"/>
</g>
</g>
</g>
</g>
<defs>
<linearGradient id="paint0_linear_3017_456" x1="11.483" y1="16.3706" x2="11.5696" y2="6.37958" gradientUnits="userSpaceOnUse">
<stop stop-color="#AECBE0"/>
<stop offset="0.48" stop-color="white"/>
<stop offset="1" stop-color="#AECBE0"/>
</linearGradient>
<linearGradient id="paint1_linear_3017_456" x1="16.6074" y1="20.8856" x2="16.61" y2="19.1361" gradientUnits="userSpaceOnUse">
<stop stop-color="#AECBE0"/>
<stop offset="0.48" stop-color="white"/>
<stop offset="1" stop-color="#AECBE0"/>
</linearGradient>
<linearGradient id="paint2_linear_3017_456" x1="0.504835" y1="17.9166" x2="0.507779" y2="16.1959" gradientUnits="userSpaceOnUse">
<stop stop-color="#AECBE0"/>
<stop offset="0.48" stop-color="white"/>
<stop offset="1" stop-color="#AECBE0"/>
</linearGradient>
<linearGradient id="paint3_linear_3017_456" x1="10.7527" y1="25.6213" x2="10.7978" y2="22.0438" gradientUnits="userSpaceOnUse">
<stop stop-color="#AECBE0"/>
<stop offset="0.48" stop-color="white"/>
<stop offset="1" stop-color="#AECBE0"/>
</linearGradient>
<linearGradient id="paint4_linear_3017_456" x1="35.1096" y1="25.6207" x2="35.1544" y2="22.0438" gradientUnits="userSpaceOnUse">
<stop stop-color="#AECBE0"/>
<stop offset="0.48" stop-color="white"/>
<stop offset="1" stop-color="#AECBE0"/>
</linearGradient>
<linearGradient id="paint5_linear_3017_456" x1="-4.00498" y1="33.877" x2="-3.72793" y2="-0.860686" gradientUnits="userSpaceOnUse">
<stop stop-color="#AECBE0"/>
<stop offset="0.48" stop-color="white"/>
<stop offset="1" stop-color="#AECBE0"/>
</linearGradient>
</defs>
</svg>
