<svg width="48" height="32" viewBox="0 0 48 32" fill="none" xmlns="http://www.w3.org/2000/svg">
<g id="Group 66">
<g id="Group">
<g id="Group_2">
<g id="Layer_8">
<path id="Vector" d="M39.6767 17.8852C38.8168 18.6577 37.7237 19.6342 36.5723 20.669C37.2427 21.5872 37.7528 22.6658 37.0824 23.9192C36.3974 25.2018 35.2314 25.3767 33.9633 25.231C33.3512 27.286 32.3164 27.9419 30.3633 27.5629C29.518 29.72 28.5415 30.1864 26.4281 29.4577C24.9852 32.0229 23.7901 32.1978 21.4581 30.2302C21.2103 30.0261 20.8168 29.8075 20.5544 29.8658C18.4556 30.2885 17.8581 30.0115 17.071 28.1314C15.2054 27.9127 14.7536 27.5484 14.3309 25.9306C12.2322 25.4787 11.9407 25.1872 11.5763 23.1468C9.6524 22.6512 9.43378 22.0682 9.27346 20.0423C9.20058 19.1241 8.20949 18.2787 7.59734 17.4188C7.55362 17.3459 7.20382 17.4042 7.07264 17.5063C6.15442 18.2642 5.27993 18.0018 4.36171 17.4917C3.32689 16.9233 2.24835 16.4277 1.21353 15.8593C-0.0107617 15.2034 -0.30226 14.3289 0.309886 13.1192C2.35037 9.12569 4.40544 5.14674 6.47507 1.18237C7.10179 -0.0273513 8.02001 -0.2897 9.22973 0.307872C10.4249 0.920018 11.6346 1.50301 12.786 2.18803C13.2378 2.46496 13.7334 2.91678 13.8937 3.39775C14.4184 4.89897 15.2783 5.67144 16.8524 5.71516C17.7561 5.74431 18.6451 5.74431 19.5488 5.68601C19.9277 5.65686 20.4233 5.58399 20.6565 5.32164C22.7115 3.04795 25.2767 3.26658 27.9148 3.76212C29.4305 4.05362 30.9463 4.418 32.4767 4.60747C33.2638 4.69492 34.0945 4.53459 34.867 4.34512C35.1439 4.28682 35.4646 3.835 35.5083 3.52893C35.6249 2.53783 36.1787 1.99856 37.0678 1.72164C38.3504 1.31354 39.6184 0.876293 40.901 0.48277C42.0524 0.118397 42.9706 0.51192 43.335 1.61961C44.8071 5.97751 46.25 10.3354 47.6638 14.7079C47.999 15.7573 47.62 16.588 46.5706 16.9816C45.1277 17.5208 43.6702 18.0747 42.169 18.3953C41.4986 18.5411 40.697 18.1184 39.6767 17.8852ZM21.5601 28.8747C21.9536 29.2391 22.2743 29.5451 22.5949 29.8366C23.2945 30.4925 24.0961 30.8132 24.8395 29.997C25.5974 29.1662 25.1747 28.4374 24.4168 27.8107C23.6297 27.1549 22.8281 26.5281 22.1139 25.7994C21.8953 25.5808 21.9099 25.1144 21.8224 24.7646C22.1722 24.8083 22.6095 24.75 22.8427 24.9249C24.1399 25.9743 25.3933 27.0965 26.6613 28.1897C27.3609 28.8018 28.1334 29.035 28.8184 28.2625C29.5034 27.4901 29.1828 26.7759 28.4686 26.1492C27.2006 25.0706 25.918 23.9921 24.6937 22.8407C24.4168 22.5783 24.3585 22.0682 24.1982 21.6747C24.6208 21.7767 25.1601 21.7476 25.4662 21.9953C27.0403 23.2925 28.5561 24.6625 30.1156 25.9889C31.0192 26.7613 31.8646 26.7759 32.4621 26.0326C33.1909 25.1435 32.7536 24.4439 32.0395 23.8318C30.4945 22.4909 28.935 21.1791 27.4192 19.8091C27.1277 19.5467 27.084 19.0366 26.9237 18.6431C27.3318 18.7306 27.8419 18.6868 28.1334 18.92C29.9552 20.4212 31.7334 21.9953 33.5261 23.5403C34.5026 24.3856 35.3334 24.4293 35.9893 23.6714C36.5868 22.9719 36.4265 22.0974 35.552 21.3395C31.6605 17.9727 27.769 14.6059 23.8775 11.2536C23.0905 10.5686 22.3763 10.7872 22.0994 11.7929C21.9536 12.3467 21.9536 12.9297 21.7933 13.469C21.2978 15.014 20.6273 16.4569 18.9075 17.0107C17.4354 17.4771 16.386 16.588 16.5318 15.0723C16.6192 14.1832 16.765 13.2504 16.6046 12.3905C16.1674 10.1459 16.7212 8.36779 18.6597 7.07063C18.6888 7.05605 18.6597 6.93945 18.6743 7.1435C16.8378 6.66253 15.118 6.21071 13.267 5.71516C11.518 9.08196 9.68155 12.6528 8.09289 15.7281C8.58843 16.4569 8.90908 16.9233 9.21516 17.3897C9.52123 17.8561 9.8273 18.337 10.1479 18.818C12.1447 17.069 13.0192 17.1273 14.6516 19.0075C16.8524 17.8269 18.2662 18.6431 18.4556 20.8876C19.2573 21.6164 20.088 22.0682 20.3941 22.7532C20.7002 23.4237 20.4524 24.3419 20.4524 25.231C22.1139 26.1492 22.4492 27.0674 21.5601 28.8747ZM39.7204 16.4423C38.467 12.682 37.2281 8.93622 36.0767 5.45281C34.5318 5.51111 33.1763 5.68601 31.8354 5.56941C30.3779 5.45281 28.9642 4.98642 27.5067 4.81152C25.816 4.60747 24.0233 3.9516 22.4637 5.26334C21.05 6.44391 19.6362 7.6099 18.3099 8.87792C17.8872 9.28601 17.5812 9.98561 17.552 10.5832C17.4791 12.1718 17.6103 13.7605 17.5957 15.3492C17.5957 16.0779 18.033 16.3111 18.4994 16.0342C19.1698 15.6407 19.8986 15.1014 20.2338 14.4455C20.6856 13.571 20.8168 12.5216 21.0791 11.5451C21.5455 9.75241 23.1488 9.22771 24.5188 10.4374C25.7868 11.5306 27.0403 12.6237 28.3083 13.7168C30.7131 15.7864 33.118 17.8561 35.6395 20.0277C37.0095 18.8326 38.3067 17.6812 39.7204 16.4423ZM41.7026 1.29897C39.9682 1.89654 38.4378 2.40666 36.9221 3.00423C36.7472 3.0771 36.6451 3.73297 36.7472 4.03905C38.1026 8.25119 39.5164 12.4342 40.8719 16.6463C41.1196 17.4188 41.5715 17.5937 42.2565 17.3605C43.4953 16.967 44.7196 16.5589 45.9439 16.1362C46.5561 15.9176 46.8476 15.5969 46.5998 14.8536C45.186 10.6706 43.816 6.45848 42.4022 2.27548C42.3002 1.91111 41.965 1.63419 41.7026 1.29897ZM5.74633 16.9961C5.89208 17.1127 6.03783 17.2293 6.18357 17.3459C6.32932 16.9961 6.43135 16.6463 6.60625 16.3111C8.64673 12.3322 10.6872 8.36779 12.7569 4.40342C13.0775 3.80585 12.9318 3.4269 12.3488 3.12083C11.2994 2.59613 10.2062 2.10058 9.22973 1.47386C8.19491 0.817993 7.67022 1.09492 7.16009 2.11516C5.55685 5.30706 3.86616 8.45524 2.26292 11.6471C0.659684 14.8391 0.193287 14.1103 3.70584 15.9467C4.37629 16.3111 5.06131 16.6463 5.74633 16.9961ZM12.6111 23.584C12.8443 23.8901 13.0484 24.4585 13.3982 24.5605C13.8063 24.6771 14.4913 24.5605 14.7682 24.2836C15.599 23.4528 16.2986 22.4909 17.0419 21.5581C17.5229 20.9459 17.5666 20.2026 16.8816 19.882C16.4443 19.6779 15.5552 19.7945 15.2054 20.1152C14.3747 20.8731 13.7334 21.8496 13.0338 22.7532C12.8735 22.9281 12.8006 23.1759 12.6111 23.584ZM19.7237 23.584C19.4467 23.2342 19.2573 22.7678 18.9512 22.6804C18.5431 22.5638 17.8872 22.5783 17.6249 22.8261C16.867 23.5548 16.1674 24.371 15.6427 25.2747C15.4386 25.6099 15.6281 26.4844 15.9342 26.7176C16.2403 26.9508 17.071 26.8779 17.4063 26.6156C18.0913 26.0617 18.6014 25.2893 19.1552 24.5897C19.3593 24.3127 19.505 23.9775 19.7237 23.584ZM11.4888 22.0536C12.203 22.0828 13.6605 20.3629 13.5148 19.6342C13.3399 18.7597 12.305 18.337 11.6492 18.92C11.1973 19.3136 10.8038 19.7945 10.4686 20.3046C10.0314 20.9897 10.6435 22.0099 11.4888 22.0536ZM19.6799 25.7119C19.0095 26.6885 18.4119 27.2569 18.2516 27.9419C18.1787 28.2188 19.0386 28.7289 19.4759 29.1225C20.0006 28.554 20.6565 28.0585 20.9625 27.388C21.0646 27.1403 20.3067 26.5136 19.6799 25.7119Z" fill="url(#paint0_linear_3017_493)"/>
</g>
</g>
</g>
</g>
<defs>
<linearGradient id="paint0_linear_3017_493" x1="-4.33007" y1="38.187" x2="-4.00447" y2="-0.96997" gradientUnits="userSpaceOnUse">
<stop stop-color="#AECBE0"/>
<stop offset="0.48" stop-color="white"/>
<stop offset="1" stop-color="#AECBE0"/>
</linearGradient>
</defs>
</svg>
